<svg width="41" height="41" viewBox="0 0 41 41" fill="none" xmlns="http://www.w3.org/2000/svg">
<rect x="0.52948" y="0.529495" width="40.4054" height="40.4054" rx="3.67322" fill="#FFC061"/>
<path d="M27.1604 28.997V27.1604H23.4872V25.3237H27.1604V23.4871L29.9153 26.2421L27.1604 28.997ZM20.7323 26.2421C20.7323 24.2218 21.8342 22.477 23.4872 21.4669C23.3953 21.0077 23.028 20.7322 22.5689 20.7322H17.059V18.8956H18.8956C19.4466 18.8956 19.8139 18.5283 19.8139 17.9773V16.1407H21.6506C22.6607 16.1407 23.4872 15.3142 23.4872 14.3041V13.9368C26.1503 15.0387 28.0787 17.61 28.0787 20.7322V21.0077C28.7215 21.1914 29.2725 21.5587 29.8235 22.0178C29.9153 21.6505 29.9153 21.1914 29.9153 20.7322C29.9153 15.6815 25.7829 11.5492 20.7323 11.5492C15.6816 11.5492 11.5492 15.6815 11.5492 20.7322C11.5492 25.7829 15.6816 29.9153 20.7323 29.9153C21.1914 29.9153 21.6506 29.9153 22.0179 29.8234C21.1914 28.8133 20.7323 27.6195 20.7323 26.2421ZM19.8139 27.9868C16.1407 27.5277 13.3858 24.4973 13.3858 20.7322C13.3858 20.1812 13.4776 19.6303 13.5695 19.0793L17.9773 23.4871V24.4054C17.9773 25.4156 18.8038 26.2421 19.8139 26.2421V27.9868Z" fill="white"/>
</svg>
