<svg width="41" height="41" viewBox="0 0 41 41" fill="none" xmlns="http://www.w3.org/2000/svg">
<rect width="40.4054" height="40.4054" rx="3.67322" fill="#7B61FF"/>
<path d="M20.2033 10.1019L11.9385 13.7751V19.285C11.9385 24.3815 15.4648 29.1476 20.2033 30.3046C24.9417 29.1476 28.468 24.3815 28.468 19.285V13.7751L20.2033 10.1019ZM20.2033 13.7751C20.9339 13.7751 21.6347 14.0654 22.1513 14.582C22.668 15.0987 22.9582 15.7994 22.9582 16.53C22.9582 17.2607 22.668 17.9614 22.1513 18.4781C21.6347 18.9947 20.9339 19.285 20.2033 19.285C19.4726 19.285 18.7719 18.9947 18.2553 18.4781C17.7386 17.9614 17.4484 17.2607 17.4484 16.53C17.4484 15.7994 17.7386 15.0987 18.2553 14.582C18.7719 14.0654 19.4726 13.7751 20.2033 13.7751ZM24.9142 24.7948C23.803 26.4937 22.1409 27.7701 20.2033 28.3945C18.2657 27.7701 16.6035 26.4937 15.4924 24.7948C15.1802 24.3356 14.9138 23.8765 14.6935 23.3898C14.6935 21.8746 17.1821 20.6349 20.2033 20.6349C23.2245 20.6349 25.7131 21.847 25.7131 23.3898C25.4927 23.8765 25.2264 24.3356 24.9142 24.7948Z" fill="white"/>
</svg>
